# xmcd
#
# Track frame offsets: 
#        150
#        13173
#        26440
#        43655
#        61705
#        81339
#        95789
#        110658
#        126510
#        145196
#
# Disc length: 2246 seconds
#
# Revision: 0
# Processed by: cddbd v1.5.2PL0 Copyright (c) Steve Scherf et al.
# Submitted via: ExactAudioCopyFreeDBPlugin 1.0
#
DISCID=8a08c40a
DTITLE=Chris Smither - They Call Me Lucky
DYEAR=2018
DGENRE=Blues
TTITLE0=The Blame's On Me
TTITLE1=Maybellene
TTITLE2=Down To The Sound
TTITLE3=Nobody Home
TTITLE4=By The Numbers
TTITLE5=Change Your Mind
TTITLE6=Eveything On Top
TTITLE7=Sittin' On Top Of The World
TTITLE8=Too Bad So Sad
TTITLE9=Lower The Humble
EXTD=
EXTT0=
EXTT1=
EXTT2=
EXTT3=
EXTT4=
EXTT5=
EXTT6=
EXTT7=
EXTT8=
EXTT9=
PLAYORDER=
